<mxfile host="65bd71144e">
    <diagram id="nJRtHeplERJK0FUyBdso" name="Page-1">
        <mxGraphModel dx="804" dy="357" grid="1" gridSize="10" guides="1" tooltips="1" connect="1" arrows="1" fold="1" page="1" pageScale="1" pageWidth="827" pageHeight="1169" math="0" shadow="0">
            <root>
                <mxCell id="0"/>
                <mxCell id="1" parent="0"/>
                <mxCell id="2" value="Start" style="strokeWidth=2;html=1;shape=mxgraph.flowchart.terminator;whiteSpace=wrap;" vertex="1" parent="1">
                    <mxGeometry x="80" y="40" width="100" height="60" as="geometry"/>
                </mxCell>
                <mxCell id="3" value="find_largest_num_array.drawio" style="text;html=1;align=center;verticalAlign=middle;resizable=0;points=[];autosize=1;strokeColor=none;fillColor=none;" vertex="1" parent="1">
                    <mxGeometry x="40" y="20" width="180" height="20" as="geometry"/>
                </mxCell>
                <mxCell id="5" value="largest_num = 0" style="rounded=1;whiteSpace=wrap;html=1;absoluteArcSize=1;arcSize=14;strokeWidth=2;" vertex="1" parent="1">
                    <mxGeometry x="80" y="140" width="100" height="40" as="geometry"/>
                </mxCell>
                <mxCell id="6" value="for counter in range(0, len(&lt;br&gt;num_array)):" style="strokeWidth=2;html=1;shape=mxgraph.flowchart.decision;whiteSpace=wrap;" vertex="1" parent="1">
                    <mxGeometry x="75" y="220" width="110" height="100" as="geometry"/>
                </mxCell>
                <mxCell id="7" value="if num_array&lt;br&gt;[counter] &amp;gt; largest_num:" style="strokeWidth=2;html=1;shape=mxgraph.flowchart.decision;whiteSpace=wrap;" vertex="1" parent="1">
                    <mxGeometry x="75" y="360" width="110" height="100" as="geometry"/>
                </mxCell>
                <mxCell id="8" value="largest_num = num_array&lt;br&gt;[counter]" style="rounded=1;whiteSpace=wrap;html=1;absoluteArcSize=1;arcSize=14;strokeWidth=2;" vertex="1" parent="1">
                    <mxGeometry x="80" y="500" width="100" height="60" as="geometry"/>
                </mxCell>
                <mxCell id="9" value="return largest_num" style="rounded=1;whiteSpace=wrap;html=1;absoluteArcSize=1;arcSize=14;strokeWidth=2;" vertex="1" parent="1">
                    <mxGeometry x="85" y="600" width="100" height="40" as="geometry"/>
                </mxCell>
            </root>
        </mxGraphModel>
    </diagram>
</mxfile>